<svg id="logo" xmlns="http://www.w3.org/2000/svg" width="159.87" height="65.02" viewBox="0 0 159.87 65.02"><title>logo</title><path d="M157.94,49.37c-1.24.16-2.53.28-3.76.38v.06C151.76,67.17,128,70,127.4,56.41c-.27-6.17,11.59-7.95,23.4-9.09.43-11.09-15.9,5.66-21.61-4.6-5-9,14.63-17.94,16.73-16.11,6.44,5.64,3.4,6.62-1.38,8.34-9.49,3.41-5.79,4.11-4.51,3.73,7.57-2.26,14.36-1,14.31,8.31,1.29-.1,2.52-.16,3.76-.27C160.4,46.51,160.56,49.16,157.94,49.37Zm-7.52.76c-9.12,1-17,2.44-16.15,5.36C136,61.06,147.85,62.3,150.42,50.13Z" transform="translate(0 0.02)"/><path d="M117.68,44.92c-.68,0-.71-6,.11-11.69,1-6.95,11.94-3.36,9.09-1.91s-4.43,8.72-6.26,12.09C120,44.57,118,44.94,117.68,44.92Z" transform="translate(0 0.02)"/><path d="M42.1,21c2.38,4.87-4.93,8.17-8.29,4.52C32.42,24,33.06,21,36.45,19.33,38.15,18.49,40.52,17.73,42.1,21Z" transform="translate(0 0.02)"/><path d="M57.06,18.86c2.59,5.3-5.38,8.9-9,4.92-1.52-1.69-.82-5,2.87-6.74C52.75,16.13,55.34,15.31,57.06,18.86Z" transform="translate(0 0.02)"/><path d="M28.88,61.67C21,67,14.66,65.82,16.67,50.82c1.45-10.91-1-11.52-3.12-9.44C10.7,44.07,8.92,51.1,8.86,57.79c.28,1.68.62,3.31,1,4.77.33,1.63-4.91,3.32-8,1C.84,62.79,0,54.87,0,44.13,0,35.31,1.17,29.24,2.23,29c8-2.19,9.31,1.34,7.58,8a47.47,47.47,0,0,0-1.39,7.92c1.67-4.66,4.07-8.48,6.8-10.17,7.42-4.67,13.61-2.47,12.43,6.8-2,16.58-2.17,18.83-.39,17.53C29.5,57.45,30.94,60.26,28.88,61.67Z" transform="translate(0 0.02)"/><path d="M55,59.59c-2.17,3.48-7.8,5.17-13.21,4.55C34,63.3,29.22,56.39,31.06,46c2-11.18,18.07-18.32,23.2-10.34,3.73,5.79-2.18,16-11.6,19.79l-.5.16c2,5.18,6.58,7.48,11,2.36C55.32,55.65,56.82,56.67,55,59.59Zm-13.6-7.42c5.85-4.16,7.8-13.32,6.19-15.9S42.49,37.78,41.32,48A20.46,20.46,0,0,0,41.38,52.17Z" transform="translate(0 0.02)"/><path d="M83.09,45a12.2,12.2,0,0,1-6,5.06c-2.39.73-5.18.06-5.18-2.7a6.07,6.07,0,0,1,3.62-4.72c-.16-1.91-1.39-2.41-2.28-1.68-3.35,2.58-7.42,12.25-6.36,19.22a1.43,1.43,0,0,1,.06.5c.16.62.33,1.24.55,1.86.56,1.57-4.9,3.31-8,.95-1.06-.78-1.62-7-1.62-17.7,0-8.82,2-16.64,3-16.92,6.41-1.74,10.14,1.29,8.14,7.25a65.67,65.67,0,0,0-2.85,10.4c2.46-6.69,6.53-12.87,9.82-14.5,5.85-2.92,10.09,1,8.86,7.81a2.06,2.06,0,0,0-.11.45c-.06.56-.57,2.3-.39,1.74A10.53,10.53,0,0,1,83.09,45Z" transform="translate(0 0.02)"/><path d="M113.21,26.16c-.45,2.31-.84,4.83-1.12,7.53-1.06,10.06-.61,19,.62,23,.72,2.14,3.45,4.94,6.07,2,2.85-3.2,6-1.35,2.18,2.42a14.32,14.32,0,0,1-11,3.42c-3.12-.39-5-2.41-6.14-5.5a8.46,8.46,0,0,1-1.56,2.3,9.26,9.26,0,0,1-8,3.09c-6.64-.73-10.54-7.92-8.7-18.15,2-10.79,11.32-14.72,16.73-11.86.11-1.35.22-2.7.33-4.1.06-.28.06-.56.11-.84-1.56.33-3.23.67-5,.95-24,4-15.72-15.57-9.87-20.68,6.64-5.73,7.36-1.86,5.3-.56-3.68,2.36-5.3,15.9,5.24,15.9a46.63,46.63,0,0,0,5-.28C106.68,6.49,116.66-2.39,124.75.53,133.73,3.79,132.78,18.07,113.21,26.16ZM102.28,50.55c-.22-3.54-.22-7.53-.17-11.63,0-.51.06-1,.06-1.46-3.35-1.52-6.64,3.65-7.48,10.79C93.75,56.62,97.48,61.06,99.6,59,101.22,57.41,102.06,52.24,102.28,50.55ZM126.36,7.39c-1.78-2.64-8.3.56-12.09,14.33C123.8,17.17,127.59,9.3,126.36,7.39Z" transform="translate(0 0.02)"/></svg>